<svg width="30" height="30" viewBox="0 0 30 30" fill="none" xmlns="http://www.w3.org/2000/svg">
<path d="M0 15C0 6.71575 6.71575 0 15 0C23.2843 0 30 6.71575 30 15C30 23.2843 23.2843 30 15 30C6.71575 30 0 23.2843 0 15Z" fill="#FFE812"/>
<path d="M15 6.875C9.47712 6.875 5 10.4051 5 14.7596C5 17.5749 6.87175 20.0452 9.68731 21.4401C9.53412 21.9684 8.703 24.8386 8.66987 25.0641C8.66987 25.0641 8.65 25.2334 8.75969 25.2981C8.86944 25.3627 8.99844 25.3125 8.99844 25.3125C9.31306 25.2686 12.6468 22.9268 13.2239 22.5202C13.8003 22.6018 14.3939 22.6443 15 22.6443C20.5229 22.6443 25 19.1143 25 14.7596C25 10.4051 20.5229 6.875 15 6.875Z" fill="#381F1F"/>
<path fill-rule="evenodd" clip-rule="evenodd" d="M9.47111 17.5121C9.15292 17.5121 8.89417 17.2649 8.89417 16.9611V13.5337H7.99398C7.68179 13.5337 7.42786 13.2802 7.42786 12.9687C7.42786 12.6573 7.68186 12.4039 7.99398 12.4039H10.9482C11.2604 12.4039 11.5144 12.6573 11.5144 12.9687C11.5144 13.2802 11.2604 13.5337 10.9482 13.5337H10.048V16.9611C10.048 17.2649 9.78929 17.5121 9.47111 17.5121ZM14.5299 17.5046C14.2894 17.5046 14.1054 17.4069 14.0499 17.2497L13.7642 16.5019L12.0049 16.5017L11.7191 17.2501C11.6638 17.4069 11.4799 17.5046 11.2393 17.5046C11.1127 17.5047 10.9876 17.4775 10.8725 17.4249C10.7135 17.3516 10.5606 17.1498 10.7358 16.6057L12.1158 12.9734C12.213 12.6971 12.5083 12.4125 12.8841 12.4039C13.2609 12.4124 13.5562 12.6971 13.6536 12.9739L15.033 16.6046C15.2086 17.15 15.0557 17.3519 14.8967 17.425C14.7815 17.4775 14.6565 17.5046 14.5299 17.5046ZM12.8845 13.8429L13.4608 15.4799H12.3083L12.8845 13.8429ZM15.9615 17.4279C15.6565 17.4279 15.4086 17.1906 15.4086 16.8991V12.9808C15.4086 12.6626 15.6728 12.4039 15.9975 12.4039C16.3222 12.4039 16.5865 12.6626 16.5865 12.9808V16.3702H17.8124C18.1174 16.3702 18.3654 16.6075 18.3654 16.8991C18.3654 17.1906 18.1174 17.4279 17.8124 17.4279H15.9615ZM18.5897 16.9276C18.5897 17.2458 18.8485 17.5046 19.1667 17.5046C19.3197 17.5043 19.4664 17.4434 19.5745 17.3352C19.6827 17.2271 19.7436 17.0804 19.7438 16.9273V15.6686L19.944 15.4684L21.297 17.2611C21.3505 17.3326 21.4201 17.3906 21.5002 17.4305C21.5802 17.4703 21.6684 17.4908 21.7578 17.4904C21.8832 17.4907 22.0051 17.4498 22.1049 17.3739C22.1655 17.3285 22.2165 17.2715 22.2549 17.2062C22.2933 17.1409 22.3184 17.0686 22.3287 16.9935C22.3395 16.9184 22.3352 16.8421 22.3162 16.7687C22.2972 16.6953 22.2638 16.6264 22.2179 16.5661L20.7978 14.6847L22.1125 13.3702C22.2029 13.2797 22.2482 13.155 22.2399 13.0189C22.2315 12.8841 22.1713 12.7542 22.0702 12.6532C21.9619 12.5449 21.8172 12.4828 21.6732 12.4828C21.5497 12.4828 21.436 12.5284 21.3532 12.6112L19.7436 14.2208V12.9808C19.7436 12.6626 19.4849 12.4039 19.1667 12.4039C18.8485 12.4039 18.5897 12.6626 18.5897 12.9808V16.9276Z" fill="#FFE812"/>
</svg>
